<?xml version="1.0" encoding="utf-8"?>
<!-- Generator: Adobe Illustrator 24.3.0, SVG Export Plug-In . SVG Version: 6.00 Build 0)  -->
<svg version="1.1" id="Layer_1" xmlns="http://www.w3.org/2000/svg" xmlns:xlink="http://www.w3.org/1999/xlink" x="0px" y="0px"
	 viewBox="0 0 350 612" style="enable-background:new 0 0 350 612;" xml:space="preserve">
<style type="text/css">
	.st0{fill:#F5C1C3;}
	.st1{fill:#9796B8;}
	.st2{fill:#F2BB56;}
	.st3{fill:#F4F3E9;}
</style>
<g>
	<g>
		<polygon class="st0" points="-5.66,486.87 -5.66,529.06 175.64,338 355.66,527.7 355.66,485.52 175.64,295.81 		"/>
		<polygon class="st1" points="-5.66,529.06 -5.66,571.25 175.64,380.18 355.66,569.89 355.66,527.7 175.64,338 		"/>
		<polygon class="st2" points="175.64,380.18 -5.66,571.25 -5.66,613.44 175.64,422.37 355.66,612.08 355.66,569.89 		"/>
		<polygon class="st3" points="175.64,422.37 -5.66,613.44 -5.66,615.6 32.32,615.6 175.64,464.56 318.96,615.6 355.66,615.6 
			355.66,612.08 		"/>
		<polygon class="st1" points="175.64,464.56 32.32,615.6 72.35,615.6 175.64,506.74 278.93,615.6 318.96,615.6 		"/>
		<polygon class="st0" points="175.64,506.74 72.35,615.6 112.39,615.6 175.64,548.93 238.9,615.6 278.93,615.6 		"/>
		<polygon class="st2" points="175.64,548.93 112.39,615.6 152.42,615.6 175.64,591.12 198.87,615.6 238.9,615.6 		"/>
		<polygon class="st3" points="175.64,591.12 152.42,615.6 198.87,615.6 		"/>
	</g>
</g>
</svg>
