<?xml version="1.0" encoding="utf-8"?>
<!-- Generator: Adobe Illustrator 24.3.0, SVG Export Plug-In . SVG Version: 6.00 Build 0)  -->
<svg version="1.1" id="Layer_1" xmlns="http://www.w3.org/2000/svg" xmlns:xlink="http://www.w3.org/1999/xlink" x="0px" y="0px"
	 viewBox="0 0 350 612" style="enable-background:new 0 0 350 612;" xml:space="preserve">
<style type="text/css">
	.st0{fill:none;}
	.st1{fill:#F5C1C3;}
	.st2{fill:#9796B8;}
	.st3{fill:#F2BB56;}
	.st4{fill:#F4F3E9;}
	.st5{fill:#FFFFFF;}
</style>
<g>
	<path class="st0" d="M64.56,307.23c0-31.83,13.59-60.47,35.27-80.48L-6.59,114.6v379.38L96.9,384.92
		C76.93,365.08,64.56,337.6,64.56,307.23z"/>
	<path class="st0" d="M283.56,307.23c0,30.37-12.37,57.85-32.34,77.68l103.49,109.07V114.6L248.29,226.76
		C269.97,246.76,283.56,275.41,283.56,307.23z"/>
	<path class="st1" d="M123.88,209.92L-6.59,72.41v42.19L99.83,226.76C107.02,220.12,115.11,214.45,123.88,209.92z"/>
	<path class="st1" d="M248.29,226.76L354.72,114.6V72.41l-130.48,137.5C233.02,214.45,241.1,220.12,248.29,226.76z"/>
	<path class="st2" d="M194.02,199.58c10.7,1.97,20.85,5.5,30.22,10.34l130.48-137.5V30.23L194.02,199.58z"/>
	<path class="st2" d="M154.1,199.58L-6.59,30.23v42.19l130.48,137.5C133.25,205.08,143.4,201.55,154.1,199.58z"/>
	<path class="st3" d="M174.06,178.43L-3.95-9.17h-2.65v39.4l160.7,169.35c6.47-1.19,13.14-1.85,19.96-1.85
		c6.82,0,13.48,0.65,19.96,1.85l160.7-169.35v-39.4h-2.65L174.06,178.43z"/>
	<polygon class="st4" points="174.06,136.24 36.09,-9.17 -3.95,-9.17 174.06,178.43 352.07,-9.17 312.04,-9.17 	"/>
	<polygon class="st2" points="174.06,136.24 312.04,-9.17 272.01,-9.17 174.06,94.05 76.12,-9.17 36.09,-9.17 	"/>
	<polygon class="st1" points="174.06,94.05 272.01,-9.17 231.98,-9.17 174.06,51.86 116.15,-9.17 76.12,-9.17 	"/>
	<polygon class="st3" points="174.06,51.86 231.98,-9.17 191.94,-9.17 174.06,9.68 156.18,-9.17 116.15,-9.17 	"/>
	<polygon class="st4" points="174.06,9.68 191.94,-9.17 156.18,-9.17 	"/>
	<path class="st1" d="M96.9,384.92L-6.59,493.98v42.19l126.79-133.62C111.65,397.72,103.81,391.79,96.9,384.92z"/>
	<path class="st1" d="M227.93,402.56l126.79,133.62v-42.19L251.22,384.92C244.31,391.79,236.47,397.72,227.93,402.56z"/>
	<path class="st2" d="M198.68,413.92l156.03,164.44v-42.19L227.93,402.56C218.9,407.67,209.08,411.53,198.68,413.92z"/>
	<path class="st2" d="M149.44,413.92c-10.39-2.39-20.22-6.25-29.25-11.36L-6.59,536.17v42.19L149.44,413.92z"/>
	<path class="st3" d="M198.68,413.92c-7.92,1.82-16.15,2.81-24.62,2.81c-8.47,0-16.7-0.99-24.62-2.81L-6.59,578.36v42.19
		l180.66-190.39l180.66,190.39v-42.19L198.68,413.92z"/>
	<polygon class="st4" points="174.06,430.16 -6.59,620.55 -6.59,623.13 30.99,623.13 174.06,472.35 317.13,623.13 354.72,623.13 
		354.72,620.55 	"/>
	<polygon class="st2" points="174.06,472.35 30.99,623.13 71.02,623.13 174.06,514.53 277.1,623.13 317.13,623.13 	"/>
	<polygon class="st1" points="174.06,514.53 71.02,623.13 111.05,623.13 174.06,556.72 237.07,623.13 277.1,623.13 	"/>
	<polygon class="st3" points="174.06,556.72 111.05,623.13 151.08,623.13 174.06,598.91 197.04,623.13 237.07,623.13 	"/>
	<polygon class="st4" points="174.06,598.91 151.08,623.13 197.04,623.13 	"/>
	<path class="st5" d="M99.83,226.76c-21.68,20.01-35.27,48.65-35.27,80.48c0,30.37,12.37,57.85,32.34,77.68
		c6.91,6.87,14.75,12.8,23.29,17.64c9.03,5.11,18.85,8.98,29.25,11.36c7.92,1.82,16.15,2.81,24.62,2.81c8.47,0,16.7-0.99,24.62-2.81
		c10.39-2.39,20.22-6.25,29.25-11.36c8.54-4.84,16.38-10.77,23.29-17.64c19.97-19.84,32.34-47.31,32.34-77.68
		c0-31.83-13.59-60.47-35.27-80.48c-7.19-6.64-15.28-12.31-24.05-16.84c-9.37-4.84-19.52-8.36-30.22-10.34
		c-6.47-1.19-13.14-1.85-19.96-1.85c-6.82,0-13.48,0.65-19.96,1.85c-10.7,1.97-20.85,5.5-30.22,10.34
		C115.11,214.45,107.02,220.12,99.83,226.76z"/>
</g>
</svg>
